<?xml version="1.0" encoding="utf-8"?>
<!-- Generator: Adobe Illustrator 23.0.1, SVG Export Plug-In . SVG Version: 6.00 Build 0)  -->
<svg version="1.1" id="Layer_1" xmlns="http://www.w3.org/2000/svg" xmlns:xlink="http://www.w3.org/1999/xlink" x="0px" y="0px"
	 viewBox="0 0 2160 2160" style="enable-background:new 0 0 2160 2160;" xml:space="preserve">
<style type="text/css">
	.st0{display:none;fill:#DA5C5C;}
	.st1{fill:none;stroke:#DA5C5C;stroke-width:77;stroke-miterlimit:10;}
	.st2{fill:none;stroke:#DA5C5C;stroke-width:77;stroke-linecap:round;stroke-linejoin:round;stroke-miterlimit:10;}
</style>
<rect x="9.91" class="st0" width="2150.09" height="2178.71"/>
<g>
	<path class="st1" d="M1833.88,1710.48c-117.87-2.73-211.19-99.98-208.44-217.21c2.75-117.23,100.52-210.05,218.39-207.32
		c117.87,2.73,211.2,99.98,208.45,217.21C2049.53,1620.39,1951.75,1713.21,1833.88,1710.48z"/>
	<path class="st1" d="M464.91,1710.5c-117.9,0-213.48-95.06-213.48-212.32s95.58-212.32,213.48-212.32
		c117.9,0,213.48,95.06,213.48,212.32S582.81,1710.5,464.91,1710.5z"/>
	<path class="st2" d="M1444.83,1493.64c0.12-50.34,10.23-100.15,29.75-146.6c19.52-46.44,48.07-88.59,84.01-124.04
		c151.65-150.21,397.64-150.21,549.29,0"/>
	<path class="st2" d="M63.41,1493.63c0-212.48,173.17-384.68,386.8-384.68c213.64,0,386.77,172.24,386.77,384.71"/>
	<path class="st2" d="M892.26,669.31H173.93v219.85h718.33V669.31z"/>
	<path class="st2" d="M1886.88,1108.97l-331.57-659.5h-221.04"/>
	<path class="st2" d="M1444.82,1498.19H836.98"/>
	<path class="st2" d="M892.27,889.12c0,0,221.04,824.37,663.05,0"/>
	<path class="st2" d="M173.93,889.12c0,0-165.8,274.79-110.52,604.52"/>
</g>
</svg>
