<?xml version="1.0" encoding="utf-8"?>
<!-- Generator: Adobe Illustrator 23.0.1, SVG Export Plug-In . SVG Version: 6.00 Build 0)  -->
<svg version="1.1" id="Layer_1" xmlns="http://www.w3.org/2000/svg" xmlns:xlink="http://www.w3.org/1999/xlink" x="0px" y="0px"
	 viewBox="0 0 2160 2160" style="enable-background:new 0 0 2160 2160;" xml:space="preserve">
<style type="text/css">
	.st0{fill:#E1E1E1;}
	.st1{fill:#F0F0F0;}
	.st2{fill:#FFFFFF;}
	.st3{fill:#E7E7E7;}
	.st4{fill:#1A2E35;}
	.st5{fill:#FF4F5B;}
	.st6{fill:#375A64;}
	.st7{fill:#E9E9E4;}
	.st8{font-family:'Montserrat-Regular';}
	.st9{font-size:38.4857px;}
	.st10{opacity:0.1;}
	.st11{opacity:0.2;fill:#FFFFFF;}
	.st12{opacity:0.2;}
	.st13{fill:#FFBF9D;}
	.st14{fill:#FF9A6C;}
</style>
<g>
	<g>
		<g>
			<g>
				<path class="st0" d="M2070.57,1416.12h-759.9V976.28h759.9V1416.12z M1315.31,1411.48h750.63V980.92h-750.63V1411.48z"/>
			</g>
			<g>
				<rect x="1412.36" y="1210.8" class="st1" width="501.47" height="14.71"/>
			</g>
			<g>
				<rect x="1412.36" y="1265.62" class="st1" width="536" height="16.05"/>
			</g>
			<g>
				<rect x="1412.36" y="1321.08" class="st1" width="536" height="16.05"/>
			</g>
			<g>
				<rect x="1412.36" y="1131.18" class="st1" width="175.26" height="38.16"/>
			</g>
			<g>
				<rect x="1312.99" y="978.6" class="st0" width="755.26" height="70.02"/>
			</g>
		</g>
		<g>
			<g>
				<g>
					<path class="st2" d="M2010.14,1038.15c-0.96-0.92,8.77-12.66,21.73-26.21c12.97-13.56,24.26-23.8,25.23-22.88
						s-8.77,12.66-21.74,26.22C2022.4,1028.83,2011.1,1039.08,2010.14,1038.15z"/>
				</g>
			</g>
			<g>
				<g>
					<path class="st2" d="M2057.1,1038.15c-0.96,0.92-12.26-9.32-25.22-22.87c-12.98-13.56-22.7-25.3-21.74-26.22
						s12.25,9.32,25.22,22.88C2048.33,1025.5,2058.06,1037.23,2057.1,1038.15z"/>
				</g>
			</g>
		</g>
	</g>
	<g>
		<g>
			<g>
				<rect x="380.11" y="107.68" class="st3" width="755.27" height="435.2"/>
			</g>
			<g>
				<rect x="479.49" y="339.88" class="st1" width="501.46" height="14.71"/>
			</g>
			<g>
				<rect x="479.49" y="394.7" class="st1" width="536" height="16.05"/>
			</g>
			<g>
				<rect x="479.49" y="450.16" class="st1" width="536" height="16.05"/>
			</g>
			<g>
				<rect x="479.49" y="260.26" class="st1" width="175.25" height="38.16"/>
			</g>
			<g>
				<rect x="380.11" y="107.68" class="st0" width="755.27" height="70.02"/>
			</g>
		</g>
		<g>
			<g>
				<g>
					<path class="st2" d="M1074.67,166.9c-0.96-0.92,8.77-12.66,21.73-26.21c12.97-13.56,24.26-23.8,25.23-22.88
						s-8.77,12.66-21.74,26.22C1086.93,157.58,1075.64,167.82,1074.67,166.9z"/>
				</g>
			</g>
			<g>
				<g>
					<path class="st2" d="M1121.64,166.9c-0.96,0.92-12.26-9.32-25.22-22.88c-12.97-13.56-22.7-25.3-21.74-26.22
						s12.25,9.32,25.22,22.88C1112.87,154.24,1122.6,165.98,1121.64,166.9z"/>
				</g>
			</g>
		</g>
	</g>
	<g>
		<g>
			<path class="st0" d="M849.33,916.14H89.43V476.31h759.9V916.14z M94.07,911.51h750.63V480.94H94.07V911.51z"/>
		</g>
		<g>
			<rect x="191.12" y="710.83" class="st1" width="501.47" height="14.71"/>
		</g>
		<g>
			<rect x="191.12" y="765.65" class="st1" width="536" height="16.05"/>
		</g>
		<g>
			<rect x="191.12" y="821.11" class="st1" width="536" height="16.05"/>
		</g>
		<g>
			<rect x="191.12" y="631.21" class="st1" width="175.26" height="38.17"/>
		</g>
		<g>
			<rect x="91.75" y="478.63" class="st0" width="755.26" height="70.02"/>
		</g>
	</g>
	<g>
		<rect x="834.53" y="1016.94" class="st3" width="891.79" height="798.36"/>
	</g>
	<g>
		<g>
			<rect x="180.79" y="765.44" class="st1" width="698.57" height="725.8"/>
		</g>
		<g>
			<rect x="180.79" y="765.44" class="st0" width="698.57" height="79.08"/>
		</g>
		<g>
			<path class="st2" d="M238.48,804.17c0,8.47-6.57,15.33-14.67,15.33c-8.1,0-14.67-6.86-14.67-15.33c0-8.47,6.57-15.33,14.67-15.33
				C231.91,788.84,238.48,795.7,238.48,804.17z"/>
		</g>
		<g>
			<path class="st2" d="M297.97,804.17c0,8.47-6.57,15.33-14.67,15.33c-8.1,0-14.67-6.86-14.67-15.33c0-8.47,6.57-15.33,14.67-15.33
				C291.4,788.84,297.97,795.7,297.97,804.17z"/>
		</g>
		<g>
			<path class="st2" d="M357.46,804.17c0,8.47-6.57,15.33-14.67,15.33c-8.1,0-14.67-6.86-14.67-15.33c0-8.47,6.57-15.33,14.67-15.33
				C350.89,788.84,357.46,795.7,357.46,804.17z"/>
		</g>
	</g>
	<g>
		<g>
			<rect x="1079.05" y="266.42" class="st1" width="891.79" height="888.81"/>
		</g>
		<g>
			<rect x="1079.05" y="266.42" class="st0" width="891.79" height="104.11"/>
		</g>
		<g>
			<path class="st2" d="M1155,317.41c0,11.15-8.65,20.18-19.31,20.18c-10.66,0-19.31-9.04-19.31-20.18s8.65-20.18,19.31-20.18
				C1146.35,297.22,1155,306.26,1155,317.41z"/>
		</g>
		<g>
			<path class="st2" d="M1227.67,303.75c7.88,7.88,8.16,20.38,0.62,27.92c-7.54,7.54-20.04,7.26-27.92-0.62
				c-7.88-7.88-8.16-20.39-0.62-27.93C1207.28,295.59,1219.78,295.87,1227.67,303.75z"/>
		</g>
		<g>
			<path class="st2" d="M1311.64,317.41c0,11.15-8.65,20.18-19.31,20.18s-19.31-9.04-19.31-20.18s8.64-20.18,19.31-20.18
				S1311.64,306.26,1311.64,317.41z"/>
		</g>
	</g>
</g>
<path class="st1" d="M1571.94,558.99c-169.81-148.19-399.7-0.04-623,312.3c-223.31,312.34-329.56,180.97-519.54,318.53
	c-189.98,137.55-240.49,701.42,428.41,646.61C1526.71,1781.63,2015.92,946.44,1571.94,558.99z"/>
<g>
	<path class="st4" d="M1778.2,2051.11c0,0.67-322.02,1.21-719.15,1.21c-397.28,0-719.23-0.54-719.23-1.21
		c0-0.67,321.95-1.21,719.23-1.21C1456.18,2049.9,1778.2,2050.45,1778.2,2051.11z"/>
</g>
<g>
	<g>
		<g>
			<path class="st5" d="M1464.42,1483.41c-71.64-50.05-87.89-142.95-85.06-226.46c0.47-13.94-1.06-28.64,5.57-40.87
				c6.63-12.23,22.1-20.59,34.59-14.71c10.35,4.87,14.86,16.91,20.66,26.87c7.7,13.25,19.18,24.22,32.69,31.23
				c8.88,4.61,19.86,7.42,28.62,2.59c12.02-6.63,13.44-23.25,13.36-37.11c-0.16-25.84-0.32-51.68-0.48-77.52
				c-0.09-13.86-0.13-28.02,4.18-41.18s13.84-25.38,27.03-29.08c13.19-3.69,29.5,3.91,32.29,17.48c1.16,5.65,0.01,11.51,0.39,17.26
				c0.38,5.76,3.07,12.12,8.53,13.73c5.53,1.63,11.08-2.31,15.23-6.36c14.31-14,24.02-32.03,33.1-49.97s17.88-36.29,30.87-51.56
				c12.98-15.27,30.94-27.37,50.8-28.49c19.86-1.12,41.01,11.13,46.03,30.62c5.03,19.55-6.37,39.38-18.78,55.2
				c-18.41,23.47-40.19,44.23-64.43,61.42c-4.37,3.1-9.11,6.45-10.78,11.59c-3.01,9.24,5.75,18.42,14.87,21.46
				c10.33,3.44,21.55,2.37,32.36,3.64c10.81,1.27,22.52,6.04,26.61,16.26c5.68,14.17-6.17,29.02-17.83,38.75
				c-23.35,19.48-50.02,34.87-78.46,45.29c-10.2,3.73-20.93,7.01-29.16,14.17c-8.22,7.17-13.19,19.63-8.22,29.39
				c4.97,9.78,17.73,12.9,28.41,10.92c10.68-1.98,20.24-7.78,30.42-11.62c19.05-7.19,43.66-5.88,55.86,10.59
				c8.02,10.82,8.73,25.9,4.67,38.8c-4.05,12.9-12.28,24.02-21.02,34.26c-30.54,35.83-69.63,64.67-113.83,80
				C1549.29,1495.32,1508.34,1499.47,1464.42,1483.41"/>
		</g>
	</g>
	<g>
		<g>
			<g>
				<path class="st4" d="M1742.76,1000.86c0.03,0.03-0.43,0.48-1.34,1.32c-1.02,0.91-2.39,2.13-4.12,3.67
					c-3.63,3.21-8.98,7.95-15.71,14.23c-13.47,12.52-32.4,31.37-52.95,57.16c-10.32,12.85-21.04,27.4-32.26,43.22
					c-11.2,15.85-23.06,32.87-34.86,51.22c-11.8,18.35-23.61,38.01-34.21,59.25c-5.34,10.6-10.11,21.69-14.97,33
					c-4.84,11.3-9.74,22.77-14.71,34.38c-19.7,46.49-37.03,91.44-49.41,133.42c-12.45,41.95-19.86,80.82-23.11,113.76
					c-3.32,32.96-2.64,59.85-1.3,78.31c0.72,9.23,1.43,16.39,2.08,21.23c0.27,2.32,0.48,4.14,0.64,5.51
					c0.13,1.25,0.18,1.89,0.14,1.9c-0.05,0-0.18-0.62-0.39-1.86c-0.22-1.36-0.52-3.17-0.89-5.48c-0.82-4.82-1.68-11.97-2.56-21.22
					c-1.65-18.47-2.61-45.46,0.5-78.56c3.03-33.08,10.28-72.15,22.65-114.26c12.29-42.14,29.59-87.22,49.31-133.75
					c4.97-11.61,9.89-23.09,14.73-34.4c4.86-11.28,9.68-22.46,15.07-33.11c10.69-21.35,22.59-41.06,34.47-59.41
					c11.88-18.37,23.82-35.36,35.1-51.17c11.32-15.79,22.15-30.32,32.58-43.13c20.8-25.72,39.99-44.43,53.69-56.75
					c6.84-6.18,12.3-10.8,16.05-13.88c1.8-1.46,3.22-2.61,4.28-3.48C1742.23,1001.2,1742.74,1000.83,1742.76,1000.86z"/>
			</g>
		</g>
	</g>
	<g>
		<g>
			<g>
				<path class="st4" d="M1565.81,1229.7c-0.17,0.03-0.64-2.08-1.35-5.91c-0.73-3.83-1.6-9.41-2.57-16.31
					c-1.96-13.8-4.02-32.96-6.2-54.09c-2.19-21.14-4.51-40.21-6.68-53.95c-1.06-6.87-1.98-12.42-2.66-16.25
					c-0.66-3.84-0.95-5.98-0.77-6.02c0.17-0.04,0.78,2.03,1.74,5.81c0.98,3.77,2.17,9.3,3.46,16.15
					c2.63,13.71,5.25,32.82,7.44,53.98c2.11,20.85,4.01,39.72,5.46,54.14c0.7,6.51,1.29,11.99,1.77,16.39
					C1565.84,1227.51,1565.99,1229.67,1565.81,1229.7z"/>
			</g>
		</g>
	</g>
	<g>
		<g>
			<g>
				<path class="st4" d="M1744.06,1196.38c0,0.18-2.53,0.47-7.11,0.85c-4.57,0.41-11.2,0.96-19.35,1.91
					c-16.33,1.76-38.79,4.99-63.42,9.63c-24.63,4.69-46.74,9.88-62.62,14.09c-7.96,2.05-14.36,3.89-18.79,5.13
					c-4.42,1.26-6.9,1.88-6.96,1.71c-0.05-0.17,2.32-1.11,6.66-2.67c4.35-1.54,10.68-3.64,18.6-5.93
					c15.81-4.68,37.93-10.17,62.63-14.87c24.7-4.65,47.3-7.6,63.72-8.9c8.21-0.72,14.87-1,19.47-1.09
					C1741.51,1196.16,1744.05,1196.2,1744.06,1196.38z"/>
			</g>
		</g>
	</g>
	<g>
		<g>
			<g>
				<path class="st4" d="M1488.16,1427.77c-0.08,0.04-0.5-0.71-1.22-2.17c-0.82-1.74-1.83-3.87-3.05-6.45
					c-2.62-5.61-6.2-13.83-10.5-24.04c-8.6-20.42-19.59-49-31.29-80.7c-11.71-31.71-22.42-60.36-30.58-80.93
					c-4-10-7.29-18.22-9.74-24.34c-1.05-2.65-1.91-4.84-2.61-6.64c-0.57-1.53-0.83-2.35-0.75-2.39c0.08-0.03,0.5,0.72,1.22,2.18
					c0.82,1.74,1.83,3.87,3.05,6.44c2.62,5.61,6.2,13.83,10.5,24.04c8.6,20.42,19.59,49,31.3,80.72
					c11.71,31.71,22.42,60.35,30.58,80.92c4,9.99,7.29,18.22,9.74,24.33c1.05,2.65,1.91,4.85,2.61,6.64
					C1487.98,1426.92,1488.25,1427.74,1488.16,1427.77z"/>
			</g>
		</g>
	</g>
	<g>
		<g>
			<g>
				<path class="st4" d="M1725.03,1351.43c0.02,0.09-0.79,0.42-2.35,0.97c-1.85,0.62-4.13,1.38-6.88,2.31
					c-6.35,2.06-14.93,4.84-25.37,8.22c-21.42,6.95-50.88,16.88-83.43,27.9c-32.56,11.03-62.15,20.7-83.71,27.2
					c-10.78,3.26-19.53,5.8-25.61,7.44c-2.81,0.74-5.13,1.34-7.02,1.84c-1.61,0.39-2.47,0.56-2.5,0.47
					c-0.02-0.09,0.79-0.42,2.35-0.97c1.85-0.62,4.12-1.38,6.88-2.3c6.35-2.06,14.93-4.84,25.36-8.22
					c21.42-6.94,50.89-16.88,83.45-27.9c32.55-11.02,62.13-20.69,83.7-27.19c10.78-3.26,19.53-5.8,25.62-7.44
					c2.81-0.74,5.13-1.35,7.02-1.84C1724.15,1351.51,1725,1351.35,1725.03,1351.43z"/>
			</g>
		</g>
	</g>
</g>
<g>
	<g>
		<g>
			<path class="st5" d="M1628.4,226.51l-23.9,8.55l-10.22-31.21c-18.84-57.56-78.99-88.36-134.01-68.68
				c-55.05,19.69-84.47,82.53-65.63,140.09l10.22,31.21l-23.97,8.58c-18.64,6.67-28.73,28.16-22.35,47.67l66.48,203.07
				c6.49,19.8,27.07,30.37,45.71,23.7l247.52-88.54c18.94-6.78,29.04-28.32,22.56-48.12l-66.48-203.08
				C1667.94,230.24,1647.34,219.73,1628.4,226.51z M1439.75,259.13c-10.33-31.54,5.79-65.99,35.97-76.78
				c30.15-10.79,63.1,6.11,73.42,37.65l10.22,31.21l-109.4,39.13L1439.75,259.13z M1578.91,439.31l16.98,51.86
				c0.72,2.19-0.54,4.43-2.66,5.19l-23.75,8.5c-1.82,0.65-4.14-0.31-4.86-2.5l-16.98-51.86c-18.4-0.78-35.47-12.97-41.86-32.48
				c-8.21-25.08,4.63-52.51,28.71-61.12c24.06-8.61,50.28,4.84,58.49,29.93C1599.36,406.33,1593.01,426.91,1578.91,439.31z"/>
		</g>
	</g>
	<g>
		<path class="st4" d="M1603.46,234.5c0.23,0.63-44.29,17.29-99.41,37.22c-55.14,19.93-100.02,35.58-100.24,34.95
			c-0.23-0.63,44.28-17.29,99.42-37.22C1558.35,249.52,1603.23,233.87,1603.46,234.5z"/>
	</g>
	<g>
		<g>
			<path class="st4" d="M1656.02,243.04c0.04-0.01,0.22,0.4,0.53,1.21c0.35,0.95,0.8,2.14,1.35,3.63c1.19,3.38,2.85,8.08,4.95,14.06
				c4.26,12.41,10.33,30.08,17.79,51.84c7.45,21.97,16.29,48.04,26.09,76.98c4.85,14.53,10.14,29.62,15.22,45.57
				c2.35,8.01,4.29,16.58,3.48,25.45c-0.41,4.4-1.61,8.83-3.75,12.83c-2.18,3.98-5.23,7.48-8.76,10.33
				c-7.13,5.7-15.47,9.03-23.54,12.02c-8.09,2.91-16.07,5.77-23.91,8.59c-15.67,5.61-30.79,11.02-45.2,16.18
				c-28.79,10.25-54.73,19.49-76.58,27.27c-21.7,7.63-39.32,13.83-51.7,18.18c-5.99,2.05-10.71,3.67-14.09,4.83
				c-1.51,0.49-2.73,0.89-3.69,1.2c-0.84,0.26-1.27,0.37-1.29,0.33c-0.01-0.04,0.39-0.23,1.2-0.56c0.94-0.37,2.13-0.84,3.61-1.42
				c3.36-1.26,8.02-3.02,13.94-5.26c12.32-4.53,29.85-10.97,51.44-18.91c21.8-7.92,47.68-17.32,76.4-27.75
				c14.39-5.2,29.5-10.66,45.15-16.31c7.83-2.83,15.8-5.7,23.88-8.62c8-2.96,16.12-6.25,22.84-11.64c3.33-2.69,6.15-5.93,8.17-9.6
				c1.97-3.69,3.09-7.78,3.48-11.92c0.78-8.33-1.06-16.66-3.36-24.55c-5-15.78-10.28-31.02-15.06-45.53
				c-9.62-29-18.3-55.13-25.61-77.15c-7.16-21.86-12.98-39.61-17.06-52.08c-1.92-6.03-3.44-10.79-4.52-14.2
				c-0.46-1.52-0.83-2.74-1.12-3.71C1656.08,243.49,1655.98,243.06,1656.02,243.04z"/>
		</g>
	</g>
	<g>
		<g>
			<path class="st4" d="M1525.46,179.09c-0.12,0.2-2.46-1.25-7.02-3.08c-4.57-1.75-11.48-3.78-20.24-4.06
				c-8.7-0.32-19.3,1.03-29.87,5.64c-10.53,4.57-20.91,12.66-28.35,23.69c-7.58,10.98-10.89,23.69-10.9,35.21
				c-0.1,11.57,2.36,21.88,4.72,30.34c2.45,8.47,4.95,15.19,6.59,19.85c1.67,4.66,2.56,7.26,2.4,7.32
				c-0.15,0.06-1.34-2.41-3.28-6.98c-1.92-4.57-4.66-11.21-7.35-19.71c-2.59-8.48-5.28-18.92-5.31-30.85
				c-0.13-11.86,3.27-25.19,11.12-36.56c7.71-11.43,18.51-19.76,29.46-24.37c11-4.66,21.91-5.86,30.84-5.31
				c8.98,0.51,16,2.86,20.53,4.9c2.25,1.1,3.96,2,5.04,2.76C1524.95,178.61,1525.5,179.02,1525.46,179.09z"/>
		</g>
	</g>
	<g>
		<g>
			<path class="st4" d="M1527.56,360.56c-0.03-0.06,0.77-0.46,2.35-1.17c1.56-0.73,3.95-1.66,7.16-2.57c3.17-1,7.25-1.72,12.05-2
				c4.79-0.24,10.43,0.26,16.27,2.42c11.85,4.17,22.77,16.28,28.13,32.33c2.58,8.11,2.81,17.52,0.21,26.62
				c-2.76,9.06-7.83,17.76-15.16,25.07l0.3-1.23c6.16,16.9,12.87,35.3,19.85,54.44l0.42,1.16l-1.17,0.39
				c-3.36,1.13-6.97,2.34-10.6,3.55c-7.81,2.62-15.52,5.19-23.07,7.73l-1.14,0.38l-0.38-1.14c-6.35-19.23-13.31-37.35-18.37-54.68
				l1,0.79c-9.49-0.63-18.02-4.62-24.82-9.81c-6.82-5.25-12.05-11.75-15.57-18.61c-3.46-6.87-5.21-14.17-4.91-20.89
				c0.17-6.72,1.72-12.79,3.89-17.92c4.32-10.34,10.77-16.84,15.55-20.39C1524.41,361.48,1527.56,360.56,1527.56,360.56
				c0.11,0.21-2.94,1.37-7.59,5.04c-4.55,3.66-10.7,10.17-14.74,20.33c-4.04,9.91-5.79,24.15,1.43,37.45
				c3.46,6.57,8.57,12.82,15.17,17.82c6.57,4.95,14.77,8.69,23.69,9.23l0.78,0.05l0.22,0.74c5.11,17.21,12.11,35.26,18.52,54.56
				l-1.52-0.76c7.55-2.53,15.26-5.12,23.07-7.74c3.63-1.22,7.24-2.43,10.6-3.55l-0.75,1.55c-6.93-19.16-13.6-37.57-19.72-54.48
				l-0.25-0.68l0.55-0.55c6.94-6.86,11.99-15.36,14.65-23.99c2.53-8.7,2.38-17.65-0.02-25.46c-5.07-15.58-15.49-27.42-26.79-31.58
				c-5.58-2.18-11.04-2.77-15.73-2.65c-4.7,0.17-8.72,0.76-11.89,1.63C1530.89,359.17,1527.65,360.76,1527.56,360.56z"/>
		</g>
	</g>
</g>
<g>
	<g>
		<g>
			<path class="st6" d="M1384.24,1699.53l-463.19-2.14c-55.71-0.25-100.67-45.61-100.43-101.32l4.91-1161.23
				c0.24-55.74,45.62-100.73,101.36-100.47l463.19,2.14c55.71,0.26,100.66,45.62,100.43,101.32l-4.91,1161.23
				C1485.37,1654.8,1439.98,1699.79,1384.24,1699.53z"/>
		</g>
		<g>
			<path class="st2" d="M1389.42,376.59l-89.8-0.41c-12.04-0.05-21.85,10.11-21.9,22.7l-0.07,16.29
				c-0.05,12.59-9.86,22.75-21.9,22.7l-175.05-0.81c-12.04-0.05-21.76-10.31-21.71-22.9l0.07-16.29
				c0.05-12.59-9.67-22.84-21.71-22.9l-31.58-0.15l-78.6-0.36c-39.04-0.18-70.82,31.33-70.99,70.36l-4.79,1133.44
				c-0.17,39.02,31.32,70.78,70.34,70.97l462.26,2.13c39.03,0.18,70.82-31.33,70.99-70.36l4.79-1133.45
				C1459.92,408.53,1428.44,376.77,1389.42,376.59z"/>
		</g>
		<g>
			<g>
				<g>
					<g>
						<path class="st5" d="M1327.21,1500.16l-343.74-1.59c-3.56-0.02-6.43-3.89-6.41-8.65l0.38-89.93c0.02-4.76,2.92-8.61,6.48-8.6
							l343.74,1.59c3.56,0.02,6.43,3.89,6.41,8.65l-0.38,89.92C1333.68,1496.33,1330.77,1500.18,1327.21,1500.16z"/>
					</g>
					<g>
						<text transform="matrix(0.9566 4.419682e-03 -4.230006e-03 1 1076.7655 1456.6599)" class="st7 st8 st9">SING UP</text>
					</g>
				</g>
			</g>
		</g>
	</g>
	<g>
		<g>
			
				<rect x="932.64" y="709.41" transform="matrix(1 4.615699e-03 -4.615699e-03 1 3.3355 -4.5723)" class="st5" width="119.26" height="21.88"/>
			
				<rect x="932.64" y="709.41" transform="matrix(1 4.615699e-03 -4.615699e-03 1 3.3355 -4.5723)" class="st10" width="119.26" height="21.88"/>
		</g>
		<g>
			<g>
				<path class="st0" d="M1401.7,843.97c-0.02-0.09,1,0.05,2.72-0.64c1.63-0.63,4.2-2.61,4.49-6.24c-0.01-7.4-0.04-18.15-0.06-31.95
					c0-6.95,0-14.66-0.01-23.1c0-2.11,0-4.27,0-6.47c0.06-2.25,0.05-4.34-1.3-6.08c-1.22-1.72-3.31-2.82-5.48-2.83
					c-2.38,0-4.8-0.01-7.26-0.01c-19.73-0.04-42.18-0.08-66.98-0.13c-99.35-0.37-236.45-0.88-387.88-1.44
					c-2-0.02-3.95,0.96-5.11,2.58c-1.29,1.64-1.23,3.58-1.2,6.06c-0.02,4.71-0.04,9.4-0.06,14.07c-0.04,9.35-0.08,18.64-0.12,27.86
					c-0.02,4.61-0.04,9.21-0.06,13.78c0.07,2.19-0.22,4.82,0.19,6.52c0.46,1.86,1.87,3.44,3.62,4.18c0.91,0.37,1.77,0.5,2.87,0.49
					l3.39,0.02l6.77,0.03c4.5,0.02,8.99,0.04,13.45,0.07c35.71,0.19,70.16,0.37,102.99,0.55c65.62,0.4,124.71,0.76,174.38,1.06
					c49.57,0.39,89.71,0.71,117.56,0.93c13.81,0.16,24.56,0.29,31.96,0.37c3.59,0.07,6.35,0.12,8.31,0.16
					C1400.74,843.88,1401.7,843.97,1401.7,843.97s-0.96,0.08-2.83,0.11c-1.96,0.02-4.72,0.05-8.31,0.08
					c-7.4,0.02-18.16,0.05-31.96,0.08c-27.85-0.04-67.99-0.09-117.56-0.16c-49.66-0.16-108.76-0.34-174.38-0.55
					c-32.82-0.13-67.27-0.27-102.98-0.41c-4.47-0.02-8.95-0.04-13.45-0.06l-6.77-0.03l-3.39-0.02c-1.16,0.02-2.6-0.16-3.78-0.68
					c-2.43-1.02-4.36-3.19-5.01-5.77c-0.36-1.31-0.28-2.64-0.29-3.71l0.01-3.43c0.02-4.58,0.04-9.17,0.06-13.78
					c0.04-9.22,0.07-18.51,0.11-27.86c0.02-4.68,0.04-9.37,0.06-14.07c0.04-1.21-0.07-2.26,0.12-3.7c0.21-1.35,0.73-2.67,1.55-3.77
					c1.59-2.24,4.32-3.61,7.07-3.58c151.43,0.84,288.53,1.59,387.87,2.14c24.81,0.18,47.26,0.34,66.99,0.49
					c2.46,0.02,4.89,0.04,7.26,0.06c2.6,0.03,5.07,1.36,6.49,3.4c1.59,2,1.58,4.73,1.49,6.81c-0.02,2.2-0.03,4.36-0.05,6.47
					c-0.08,8.44-0.15,16.15-0.2,23.1c-0.17,13.82-0.3,24.58-0.39,31.98c-0.4,3.87-3.18,5.85-4.89,6.43
					C1402.69,844.2,1401.7,843.97,1401.7,843.97z"/>
			</g>
		</g>
		<g>
			
				<rect x="964.64" y="793.81" transform="matrix(1 4.619129e-03 -4.619129e-03 1 3.7254 -4.9511)" class="st5" width="218.16" height="20.45"/>
			
				<rect x="964.64" y="793.81" transform="matrix(1 4.619129e-03 -4.619129e-03 1 3.7254 -4.9511)" class="st11" width="218.16" height="20.45"/>
		</g>
		<g>
			
				<rect x="931.79" y="909.12" transform="matrix(1 4.615683e-03 -4.615683e-03 1 4.2573 -4.5663)" class="st5" width="119.26" height="21.88"/>
			
				<rect x="931.79" y="909.12" transform="matrix(1 4.615683e-03 -4.615683e-03 1 4.2573 -4.5663)" class="st10" width="119.26" height="21.88"/>
		</g>
		<g>
			<g>
				<path class="st0" d="M1398.64,1043.66c-0.01-0.08,0.97,0,2.75-0.52c1.68-0.55,4.4-1.94,5.87-5.26c0.79-1.63,0.87-3.61,0.8-5.88
					c-0.01-2.25-0.02-4.71-0.03-7.37c-0.01-5.34-0.02-11.48-0.04-18.38c0-6.92,0-14.61,0-23.02c0-2.1,0-4.25,0-6.45
					c0.1-2.22-0.17-4.27-1.35-6.12c-1.11-1.82-2.93-3.26-5.04-3.91c-2.07-0.66-4.56-0.3-7.01-0.4c-19.66-0.04-42.04-0.08-66.76-0.13
					c-99-0.37-235.63-0.87-386.53-1.43c-4.19-0.1-8.06,3.32-8.47,7.46c-0.14,4.41-0.07,9.29-0.12,13.89
					c-0.04,9.32-0.08,18.58-0.12,27.77c-0.02,4.6-0.04,9.18-0.06,13.74c0.08,2.28-0.25,4.66,0.29,6.47
					c0.52,1.92,1.75,3.63,3.38,4.76c1.7,1.14,3.54,1.57,5.77,1.48l6.75,0.03c4.49,0.02,8.96,0.05,13.4,0.07
					c35.59,0.19,69.92,0.37,102.63,0.54c65.39,0.4,124.28,0.76,173.77,1.06c49.4,0.39,89.4,0.71,117.15,0.92
					c13.76,0.16,24.48,0.29,31.85,0.37c3.58,0.07,6.33,0.12,8.28,0.16C1397.68,1043.57,1398.64,1043.66,1398.64,1043.66
					s-0.96,0.08-2.83,0.11c-1.95,0.02-4.71,0.05-8.28,0.08c-7.37,0.02-18.09,0.05-31.85,0.08c-27.75-0.04-67.75-0.09-117.15-0.16
					c-49.49-0.15-108.38-0.34-173.77-0.54c-32.71-0.13-67.04-0.27-102.63-0.4c-4.45-0.02-8.92-0.04-13.41-0.06l-6.75-0.03
					c-2.27,0.12-5.05-0.43-7.1-1.89c-2.1-1.44-3.67-3.63-4.34-6.1c-0.69-2.6-0.28-4.86-0.38-7.12c0.02-4.56,0.03-9.14,0.05-13.73
					c0.04-9.19,0.08-18.45,0.11-27.77c0.05-4.72-0.04-9.2,0.13-14.16c0.52-5.34,5.49-9.73,10.88-9.59
					c150.9,0.83,287.53,1.59,386.52,2.14c24.72,0.18,47.09,0.34,66.75,0.49c2.43,0.13,4.88-0.26,7.39,0.51
					c2.42,0.76,4.47,2.42,5.72,4.5c1.33,2.04,1.62,4.64,1.49,6.78c-0.02,2.19-0.03,4.34-0.05,6.45c-0.07,8.41-0.15,16.1-0.2,23.02
					c-0.07,6.9-0.14,13.05-0.19,18.38c-0.03,2.66-0.06,5.11-0.09,7.37c0.04,2.21-0.09,4.4-0.96,6.08c-1.63,3.44-4.5,4.8-6.25,5.29
					C1399.61,1043.84,1398.64,1043.66,1398.64,1043.66z"/>
			</g>
		</g>
		<g>
			
				<rect x="930.91" y="1117.4" transform="matrix(1 4.596258e-03 -4.596258e-03 1 5.1966 -4.5409)" class="st5" width="119.26" height="21.88"/>
			
				<rect x="930.91" y="1117.4" transform="matrix(1 4.596258e-03 -4.596258e-03 1 5.1966 -4.5409)" class="st10" width="119.26" height="21.88"/>
		</g>
		<g>
			<g>
				<path class="st0" d="M1397.75,1251.94c0-0.08,0.98,0,2.75-0.52c1.69-0.55,4.4-1.95,5.87-5.26c0.79-1.63,0.87-3.61,0.8-5.88
					c-0.01-2.26-0.02-4.71-0.03-7.37c-0.01-5.34-0.02-11.48-0.03-18.38c0-6.92,0-14.61-0.01-23.02c0-2.1,0-4.25,0-6.45
					c0.1-2.21-0.17-4.27-1.35-6.12c-1.12-1.82-2.93-3.26-5.04-3.91c-2.07-0.65-4.56-0.3-7.01-0.4c-19.66-0.04-42.03-0.08-66.75-0.13
					c-99-0.37-235.62-0.87-386.53-1.43c-4.2-0.1-8.07,3.31-8.47,7.46c-0.14,4.41-0.07,9.28-0.12,13.89
					c-0.04,9.32-0.08,18.58-0.12,27.77c-0.02,4.6-0.04,9.17-0.06,13.74c0.08,2.27-0.25,4.65,0.29,6.47
					c0.53,1.92,1.75,3.63,3.39,4.76c1.7,1.15,3.54,1.57,5.77,1.49l6.75,0.03c4.49,0.02,8.96,0.05,13.41,0.07
					c35.59,0.19,69.92,0.37,102.63,0.54c65.39,0.4,124.28,0.76,173.77,1.06c49.4,0.39,89.4,0.71,117.15,0.92
					c13.76,0.16,24.48,0.29,31.85,0.38c3.58,0.07,6.33,0.12,8.28,0.16C1396.8,1251.86,1397.75,1251.94,1397.75,1251.94
					s-0.96,0.08-2.82,0.11c-1.96,0.02-4.71,0.04-8.28,0.08c-7.37,0.02-18.09,0.05-31.85,0.08c-27.75-0.04-67.75-0.09-117.15-0.16
					c-49.49-0.15-108.38-0.34-173.77-0.54c-32.71-0.13-67.04-0.26-102.63-0.4c-4.45-0.02-8.92-0.04-13.4-0.06l-6.75-0.03
					c-2.27,0.12-5.06-0.43-7.1-1.89c-2.1-1.44-3.67-3.63-4.35-6.1c-0.69-2.6-0.28-4.86-0.38-7.12c0.02-4.56,0.04-9.14,0.05-13.73
					c0.04-9.19,0.07-18.45,0.11-27.77c0.05-4.72-0.04-9.2,0.14-14.16c0.51-5.34,5.49-9.73,10.88-9.59
					c150.9,0.83,287.52,1.59,386.52,2.14c24.72,0.18,47.09,0.34,66.75,0.49c2.43,0.13,4.88-0.26,7.39,0.51
					c2.42,0.76,4.47,2.42,5.72,4.5c1.33,2.04,1.62,4.64,1.49,6.78c-0.02,2.19-0.04,4.34-0.05,6.44c-0.07,8.41-0.14,16.1-0.2,23.02
					c-0.07,6.91-0.14,13.05-0.19,18.39c-0.03,2.65-0.06,5.11-0.09,7.36c0.04,2.21-0.09,4.41-0.96,6.08c-1.63,3.44-4.5,4.8-6.25,5.29
					C1398.73,1252.11,1397.75,1251.94,1397.75,1251.94z"/>
			</g>
		</g>
		<g>
			
				<rect x="963.8" y="993.52" transform="matrix(1 4.619090e-03 -4.619090e-03 1 4.6478 -4.945)" class="st5" width="218.16" height="20.45"/>
			
				<rect x="963.8" y="993.52" transform="matrix(1 4.619090e-03 -4.619090e-03 1 4.6478 -4.945)" class="st11" width="218.16" height="20.45"/>
		</g>
		<g>
			<g>
				<g>
					<path class="st5" d="M983.66,1214.09c-0.03,5.62-4.31,10.15-9.58,10.13c-5.27-0.03-9.52-4.6-9.49-10.22
						c0.03-5.62,4.31-10.15,9.58-10.13C979.44,1203.89,983.69,1208.47,983.66,1214.09z"/>
				</g>
				<g>
					<path class="st5" d="M1013.22,1214.22c-0.03,5.62-4.31,10.15-9.58,10.13s-9.52-4.6-9.49-10.22c0.02-5.62,4.31-10.15,9.58-10.13
						C1008.99,1204.03,1013.24,1208.6,1013.22,1214.22z"/>
				</g>
				<g>
					<path class="st5" d="M1042.77,1214.36c-0.02,5.62-4.31,10.15-9.58,10.13c-5.27-0.02-9.52-4.6-9.49-10.22
						c0.03-5.62,4.31-10.15,9.58-10.13C1038.54,1204.16,1042.8,1208.74,1042.77,1214.36z"/>
				</g>
				<g>
					<path class="st5" d="M1072.32,1214.49c-0.02,5.62-4.31,10.15-9.58,10.13c-5.27-0.02-9.52-4.6-9.49-10.22
						c0.02-5.62,4.31-10.15,9.58-10.13C1068.1,1204.3,1072.35,1208.88,1072.32,1214.49z"/>
				</g>
				<g>
					<path class="st5" d="M1101.88,1214.63c-0.02,5.62-4.31,10.15-9.58,10.13c-5.27-0.02-9.52-4.6-9.5-10.21
						c0.03-5.62,4.32-10.15,9.58-10.13C1097.65,1204.44,1101.9,1209.01,1101.88,1214.63z"/>
				</g>
				<g>
					<path class="st5" d="M1131.43,1214.77c-0.02,5.62-4.31,10.15-9.58,10.13c-5.27-0.02-9.51-4.6-9.49-10.21
						c0.02-5.62,4.31-10.15,9.58-10.13C1127.21,1204.58,1131.45,1209.15,1131.43,1214.77z"/>
				</g>
				<g>
					<path class="st5" d="M1160.99,1214.9c-0.03,5.62-4.32,10.15-9.58,10.13c-5.27-0.03-9.52-4.6-9.49-10.22
						c0.02-5.62,4.31-10.15,9.58-10.13C1156.76,1204.71,1161.01,1209.29,1160.99,1214.9z"/>
				</g>
				<g>
					<path class="st5" d="M1190.54,1215.04c-0.02,5.62-4.31,10.15-9.58,10.13c-5.27-0.03-9.52-4.6-9.49-10.22
						c0.02-5.62,4.31-10.15,9.58-10.13C1186.31,1204.85,1190.56,1209.42,1190.54,1215.04z"/>
				</g>
				<g>
					<path class="st5" d="M1220.09,1215.18c-0.02,5.62-4.31,10.15-9.58,10.13c-5.27-0.02-9.52-4.6-9.5-10.22
						c0.03-5.62,4.32-10.15,9.58-10.13C1215.87,1204.98,1220.12,1209.56,1220.09,1215.18z"/>
				</g>
			</g>
			<g class="st12">
				<g>
					<path class="st2" d="M983.66,1214.09c-0.03,5.62-4.31,10.15-9.58,10.13c-5.27-0.03-9.52-4.6-9.49-10.22
						c0.03-5.62,4.31-10.15,9.58-10.13C979.44,1203.89,983.69,1208.47,983.66,1214.09z"/>
				</g>
				<g>
					<path class="st2" d="M1013.22,1214.22c-0.03,5.62-4.31,10.15-9.58,10.13s-9.52-4.6-9.49-10.22c0.02-5.62,4.31-10.15,9.58-10.13
						C1008.99,1204.03,1013.24,1208.6,1013.22,1214.22z"/>
				</g>
				<g>
					<path class="st2" d="M1042.77,1214.36c-0.02,5.62-4.31,10.15-9.58,10.13c-5.27-0.02-9.52-4.6-9.49-10.22
						c0.03-5.62,4.31-10.15,9.58-10.13C1038.54,1204.16,1042.8,1208.74,1042.77,1214.36z"/>
				</g>
				<g>
					<path class="st2" d="M1072.32,1214.49c-0.02,5.62-4.31,10.15-9.58,10.13c-5.27-0.02-9.52-4.6-9.49-10.22
						c0.02-5.62,4.31-10.15,9.58-10.13C1068.1,1204.3,1072.35,1208.88,1072.32,1214.49z"/>
				</g>
				<g>
					<path class="st2" d="M1101.88,1214.63c-0.02,5.62-4.31,10.15-9.58,10.13c-5.27-0.02-9.52-4.6-9.5-10.21
						c0.03-5.62,4.32-10.15,9.58-10.13C1097.65,1204.44,1101.9,1209.01,1101.88,1214.63z"/>
				</g>
				<g>
					<path class="st2" d="M1131.43,1214.77c-0.02,5.62-4.31,10.15-9.58,10.13c-5.27-0.02-9.51-4.6-9.49-10.21
						c0.02-5.62,4.31-10.15,9.58-10.13C1127.21,1204.58,1131.45,1209.15,1131.43,1214.77z"/>
				</g>
				<g>
					<path class="st2" d="M1160.99,1214.9c-0.03,5.62-4.32,10.15-9.58,10.13c-5.27-0.03-9.52-4.6-9.49-10.22
						c0.02-5.62,4.31-10.15,9.58-10.13C1156.76,1204.71,1161.01,1209.29,1160.99,1214.9z"/>
				</g>
				<g>
					<path class="st2" d="M1190.54,1215.04c-0.02,5.62-4.31,10.15-9.58,10.13c-5.27-0.03-9.52-4.6-9.49-10.22
						c0.02-5.62,4.31-10.15,9.58-10.13C1186.31,1204.85,1190.56,1209.42,1190.54,1215.04z"/>
				</g>
				<g>
					<path class="st2" d="M1220.09,1215.18c-0.02,5.62-4.31,10.15-9.58,10.13c-5.27-0.02-9.52-4.6-9.5-10.22
						c0.03-5.62,4.32-10.15,9.58-10.13C1215.87,1204.98,1220.12,1209.56,1220.09,1215.18z"/>
				</g>
			</g>
		</g>
		<g>
			<g>
				<path class="st5" d="M1178.12,545.69c6.24-2.62,10.68-9.05,10.72-16.64c0.04-9.93-7.48-18.02-16.79-18.07
					c-9.31-0.04-16.9,7.97-16.94,17.91c-0.03,7.65,4.44,14.17,10.75,16.79c-25.95,3.91-24.78,32.12-24.78,32.12l61.37,0.28
					C1202.45,578.09,1203.85,549.58,1178.12,545.69z"/>
				<path class="st10" d="M1178.12,545.69c6.24-2.62,10.68-9.05,10.72-16.64c0.04-9.93-7.48-18.02-16.79-18.07
					c-9.31-0.04-16.9,7.97-16.94,17.91c-0.03,7.65,4.44,14.17,10.75,16.79c-25.95,3.91-24.78,32.12-24.78,32.12l61.37,0.28
					C1202.45,578.09,1203.85,549.58,1178.12,545.69z"/>
			</g>
			<g>
				
					<rect x="1058.94" y="596.05" transform="matrix(1 4.615101e-03 -4.615101e-03 1 2.8237 -5.3856)" class="st5" width="218.85" height="26.17"/>
				
					<rect x="1058.94" y="596.05" transform="matrix(1 4.615101e-03 -4.615101e-03 1 2.8237 -5.3856)" class="st11" width="218.85" height="26.17"/>
			</g>
		</g>
	</g>
</g>
<g>
	<g>
		<g>
			<path class="st5" d="M473.34,731.98c0,0.04-0.73,0.13-2.15,0.24c-1.53,0.11-3.63,0.26-6.31,0.46c-2.79,0.05-6.18,0.65-10.17,1.36
				c-1.99,0.4-4.19,0.56-6.43,1.23c-2.26,0.63-4.65,1.29-7.19,1.99c-10.01,3.16-22.06,8.17-34.2,16.96
				c-12.11,8.72-24.21,21.19-33.65,37.45c-4.96,8-8.56,17.23-11.79,26.93c-2.63,9.88-4.96,20.37-5.13,31.43
				c-0.49,5.51,0.06,11.12,0.3,16.81c0.15,2.85,0.76,5.67,1.13,8.54c0.39,2.87,0.81,5.76,1.63,8.59
				c2.35,11.53,7.04,22.83,12.98,33.66c11.88,21.74,31.83,40.47,56.48,51.33c12.33,5.44,25.97,8.37,39.83,8.94
				c13.88,0.88,28.1-1.35,41.58-5.98l4.08-1.5l0.54-0.2l0.49,0.25c19.96,10.13,39.52,20.06,58.49,29.69l-1.74,1.48
				c-6.25-19.38-12.3-38.18-18.11-56.21l-0.22-0.7l0.52-0.52c14.74-14.76,25.01-32.7,30.71-51.05c5.71-18.42,6.68-37.17,4.45-54.35
				c-2.23-17.22-7.86-32.88-15.36-46.06c-7.5-13.22-16.83-23.95-26.41-32.33c-9.69-8.32-19.73-13.96-28.73-18.28
				c-9.22-3.86-17.44-6.33-24.27-7.65c-3.41-0.58-6.45-1.1-9.1-1.55c-2.63-0.18-4.86-0.34-6.71-0.47c-1.73-0.13-3.08-0.24-4.11-0.32
				C473.81,732.08,473.34,732.02,473.34,731.98c0-0.03,0.47-0.04,1.4-0.03c1.03,0.03,2.39,0.07,4.13,0.12
				c1.86,0.07,4.11,0.17,6.76,0.27c2.67,0.4,5.74,0.85,9.18,1.37c6.9,1.2,15.23,3.58,24.59,7.37c9.14,4.25,19.36,9.86,29.23,18.21
				c9.77,8.4,19.3,19.22,26.99,32.58c7.69,13.32,13.5,29.2,15.83,46.68c2.34,17.45,1.42,36.51-4.33,55.28
				c-5.74,18.7-16.15,37.01-31.16,52.09l0.29-1.21c5.84,18.02,11.92,36.81,18.19,56.18l0.92,2.83l-2.66-1.35
				c-18.97-9.62-38.54-19.54-58.5-29.66l1.02,0.05l-4.17,1.53c-13.78,4.74-28.32,7.01-42.5,6.11c-14.17-0.59-28.11-3.61-40.7-9.18
				c-25.18-11.12-45.48-30.28-57.53-52.45c-6.03-11.05-10.76-22.57-13.12-34.31c-0.82-2.88-1.23-5.82-1.62-8.74
				c-0.36-2.92-0.97-5.79-1.11-8.68c-0.22-5.79-0.76-11.49-0.24-17.08c0.23-11.24,2.63-21.89,5.36-31.9
				c3.33-9.84,7.04-19.19,12.12-27.27c9.67-16.44,22.03-28.98,34.36-37.7c12.36-8.78,24.6-13.72,34.74-16.76
				c2.57-0.67,4.99-1.3,7.28-1.9c2.27-0.63,4.49-0.76,6.5-1.12c4.04-0.63,7.45-1.16,10.26-1.13c2.7-0.09,4.8-0.16,6.35-0.21
				C472.6,731.93,473.34,731.94,473.34,731.98z"/>
		</g>
	</g>
	<g>
		<g>
			<path class="st5" d="M499.78,840.26h-8.57l-18.7-26.07v-17.11c0,0-13.25-0.81-11.69,21.59c1.56,22.4-0.13,16.7-0.13,16.7
				s-28.13,0.11-30.46,2.55c-1.7,1.78-2.47,29.72-2.76,44.87c-0.15,7.63,4.53,14.72,11.63,16.53c1.01,0.26,2.03,0.41,3.03,0.41
				c7.02,0,42.86-5.7,42.86-5.7h14.8V840.26z"/>
		</g>
		<g>
			<polygon class="st5" points="524.31,835.56 519.04,894.18 504.37,894.18 504.37,836.74 			"/>
		</g>
	</g>
</g>
<g>
	<g>
		<g>
			<g>
				<path class="st5" d="M699.11,2028.9v-39.68l-71.09-0.48l-0.59,59.94l4.41,0.33c19.61,1.27,99.8,3.11,112.94-0.96
					C759.42,2043.52,699.11,2028.9,699.11,2028.9z"/>
			</g>
			<g>
				<g>
					<path class="st4" d="M746.45,2044.34c0,0.67-26.6,1.21-59.39,1.21c-32.81,0-59.4-0.54-59.4-1.21c0-0.67,26.59-1.2,59.4-1.2
						C719.86,2043.13,746.45,2043.67,746.45,2044.34z"/>
				</g>
			</g>
			<g>
				<g>
					<path class="st4" d="M700.36,2037c-0.58-0.31-0.08-2.4,1.44-4.47c1.52-2.07,3.38-3.17,3.84-2.71c0.48,0.48-0.5,2.22-1.9,4.14
						C702.33,2035.86,700.95,2037.31,700.36,2037z"/>
				</g>
			</g>
			<g>
				<g>
					<path class="st4" d="M704.89,2039.61c-0.62-0.23-0.3-2.58,1.1-5.05c1.39-2.48,3.24-3.97,3.76-3.56
						c0.53,0.42-0.36,2.44-1.65,4.75C706.8,2038.04,705.52,2039.85,704.89,2039.61z"/>
				</g>
			</g>
			<g>
				<g>
					<path class="st4" d="M649.08,2044.16c-0.28,0.19-1.34-0.85-2.87-2.59c-1.55-1.73-3.58-4.18-6.24-6.25
						c-2.64-2.06-5.55-3.09-7.69-3.36c-2.16-0.29-3.58,0.05-3.7-0.3c-0.12-0.26,1.2-1.25,3.76-1.4c2.52-0.17,6.09,0.79,9.11,3.15
						c3,2.34,4.92,5.14,6.14,7.16C648.8,2042.6,649.35,2043.98,649.08,2044.16z"/>
				</g>
			</g>
			<g>
				<g>
					<path class="st4" d="M700.57,2029.54c0.35,0.56-0.87,1.94-2.9,2.68c-2.03,0.75-3.85,0.49-3.95-0.16
						c-0.11-0.67,1.34-1.44,3.11-2.1C698.62,2029.3,700.22,2028.96,700.57,2029.54z"/>
				</g>
			</g>
			<g>
				<g>
					<path class="st4" d="M699.46,2025.7c0.06,0.67-1.83,1.24-4.23,1.27c-2.4,0.03-4.31-0.48-4.26-1.15
						c0.04-0.67,1.94-1.23,4.23-1.26C697.48,2024.53,699.39,2025.04,699.46,2025.7z"/>
				</g>
			</g>
		</g>
		<g>
			<g>
				<path class="st5" d="M874.18,2028.9l0-39.68l-71.1-0.48l-0.59,59.33l4.41,0.33c19.61,1.27,99.8,3.72,112.94-0.34
					C934.5,2043.52,874.18,2028.9,874.18,2028.9z"/>
			</g>
			<g>
				<g>
					<path class="st4" d="M921.52,2044.43c0,0.67-26.59,1.21-59.39,1.21c-32.81,0-59.4-0.54-59.4-1.21c0-0.67,26.59-1.21,59.4-1.21
						C894.93,2043.22,921.52,2043.76,921.52,2044.43z"/>
				</g>
			</g>
			<g>
				<g>
					<path class="st4" d="M875.43,2037c-0.58-0.31-0.08-2.4,1.44-4.47c1.52-2.07,3.38-3.17,3.84-2.71c0.48,0.48-0.5,2.22-1.9,4.14
						C877.41,2035.86,876.02,2037.31,875.43,2037z"/>
				</g>
			</g>
			<g>
				<g>
					<path class="st4" d="M879.96,2039.61c-0.62-0.23-0.3-2.58,1.1-5.05c1.39-2.48,3.24-3.97,3.76-3.56
						c0.53,0.42-0.36,2.44-1.65,4.75C881.86,2038.04,880.59,2039.85,879.96,2039.61z"/>
				</g>
			</g>
			<g>
				<g>
					<path class="st4" d="M824.15,2044.16c-0.28,0.19-1.34-0.85-2.87-2.59c-1.55-1.73-3.58-4.18-6.24-6.25
						c-2.64-2.06-5.54-3.09-7.69-3.36c-2.16-0.29-3.58,0.05-3.7-0.3c-0.12-0.26,1.2-1.25,3.76-1.4c2.52-0.17,6.09,0.79,9.11,3.15
						c3,2.34,4.92,5.14,6.14,7.16C823.87,2042.6,824.42,2043.98,824.15,2044.16z"/>
				</g>
			</g>
			<g>
				<g>
					<path class="st4" d="M875.64,2029.54c0.35,0.56-0.87,1.94-2.9,2.68c-2.03,0.75-3.85,0.49-3.95-0.16
						c-0.1-0.67,1.34-1.44,3.11-2.1C873.69,2029.3,875.29,2028.96,875.64,2029.54z"/>
				</g>
			</g>
			<g>
				<g>
					<path class="st4" d="M874.53,2025.7c0.07,0.67-1.83,1.24-4.23,1.27c-2.4,0.03-4.31-0.48-4.26-1.15
						c0.05-0.67,1.94-1.23,4.23-1.26C872.55,2024.53,874.46,2025.04,874.53,2025.7z"/>
				</g>
			</g>
		</g>
		<g>
			<path class="st13" d="M1136.08,851.48c-1.86-1.91-6.42-1.01-6.42-1.01s0.8-5.42-0.05-8.04c-0.84-2.62-6.68-2.12-6.68-2.12
				s-0.36-2.52,0.15-6.59c0.13-1.02-0.43-1.77-1.36-2.33c-2.77-1.68-8.74-1.59-8.74-1.59c-3.58-2.56,10.9-22.82,16.28-29.3
				c5.31-6.41,4.42-11.54-0.38-11.53c-3.27,0.01-20.18,19.48-25.34,26.02c-5.16,6.53-18.99,24.72-19.46,10.21
				c-0.47-14.51-6.3-25.49-9.95-27.36c-3.64-1.87-7.58,2.52-5.56,6.55c1.63,3.26,2.66,9.53,3.24,14.27
				c0.48,3.91,0.32,7.88-0.53,11.73c-2.42,10.87-5.02,17.93-6.24,20.95l-0.36-0.2c0,0-101.22,97.06-108.52,103.98
				c-6.57,6.23-138.09-7.37-164.44-10.17c-7.2-0.81-17.87-2.25-27.11-1.85c-11.43,0.5-13.46,2.12-24.9,2.28
				c-35.03,0.47-64.22,3.88-85.95,7.56c-26.27,4.44-47.8,23.14-55.93,48.51c-26.59,83-86.76,279.49-97.49,389.88
				c-8.44,15.88-17.88,34.42-21.72,44.86c-7.45,20.29-5.64,20.98-3.13,21.45c6.74,1.25,14.46-35.19,17.34-26.4
				c2.88,8.79-14.62,43.47-7.52,44.48c9.26,1.32,16.63-36.97,17.5-40.17c0.84-3.1,5.51-2.06,4.58,0.79
				c-1.34,4.09-14.39,47.35-5.31,48.74c5.03,0.77,5.57-8.4,5.57-8.4s9.23-41.38,13.49-40.58c4.33,0.81-0.27,25.29-2.41,33.43
				c-2.11,8.05,0.86,12.32,5.2,10.3c2.96-1.38,10.09-26.17,12.01-34.27c1.92-8.1,6.8-30.42,13.35-17.46
				c6.55,12.96,16.46,20.45,20.55,20.61c4.09,0.16,5.81-5.47,2.28-8.28c-2.85-2.26-6.43-7.52-8.96-11.58
				c-2.09-3.34-3.62-7.01-4.46-10.86c-3.26-14.84-3.23-23.47-3.23-23.47l-0.76-4.77c10.38-51.44,40.32-202.37,83.32-298.79
				l17.7,36.44l7.69,26.97l-47.19,116.58l201.32-2.65l-30.01-115.65l36.47-120.6l0,0c39.47,0.88,140.82,2.35,157.86-5.26
				c21.24-9.49,131.14-148.03,131.14-148.03h0c7.42-5.91,14.97-12.27,20.54-17.82C1133.56,860.92,1140.1,855.62,1136.08,851.48z"/>
		</g>
		<g>
			<g>
				<path class="st5" d="M607.48,1185.1c5.83-19.94,35.84-118.52,35.84-118.52s14.73,80.37,10.86,90.05
					c-4.46,11.15-12.66,23.92-12.66,23.92c-34.04,51.84-29.57,77.75-29.57,77.75l205.62-6.27c0.5-28.76-16.52-95.62-20.08-106.27
					c-3.56-10.65,8.25-45.61,8.25-45.61s23.24-23.6,22.34-35.75c-1.81-24.47-4.05-32.37-4.05-32.37l125.12,4.61l-3.93-84.9
					l-179.85-18c-6.22,17.71-62.86,9.03-62.86,9.03c-61.14,2.01-64.85,13.25-90.34,33c-25.5,19.74-67.49,189.29-67.49,189.29
					L607.48,1185.1z"/>
			</g>
			<g>
				<g>
					<path class="st4" d="M729.09,1165.05c0,0.32-4.14,0.59-10.84,0.55c-6.69-0.04-15.94-0.46-26.11-1.48
						c-10.17-1.03-19.32-2.46-25.88-3.75c-6.57-1.29-10.57-2.38-10.51-2.69c0.06-0.34,4.17,0.16,10.78,1.01
						c6.61,0.86,15.74,2.01,25.85,3.03c10.11,1.01,19.28,1.7,25.93,2.17C724.97,1164.37,729.09,1164.7,729.09,1165.05z"/>
				</g>
			</g>
			<g>
				<g>
					<path class="st4" d="M743.16,1147.56c0.09,0.29-4.16,1.91-11.23,3.83c-7.07,1.92-16.99,4.03-28.11,5.36
						c-11.12,1.31-21.27,1.59-28.59,1.37c-7.32-0.21-11.82-0.79-11.81-1.09c0.02-0.36,4.53-0.39,11.8-0.62
						c7.27-0.23,17.3-0.76,28.31-2.06c11-1.31,20.88-3.14,28-4.62C738.66,1148.24,743.06,1147.22,743.16,1147.56z"/>
				</g>
			</g>
			<g>
				<g>
					<path class="st4" d="M812.33,1069.55c0.32,0.07-0.21,4.08-1.41,10.49c-1.2,6.41-3.08,15.23-5.45,24.89
						c-2.37,9.67-4.78,18.35-6.69,24.59c-1.91,6.24-3.29,10.04-3.61,9.95c-0.33-0.09,0.48-4.05,1.96-10.39
						c1.75-7.24,3.77-15.55,5.99-24.72c2.27-9.16,4.33-17.46,6.13-24.69C810.88,1073.37,812,1069.48,812.33,1069.55z"/>
				</g>
			</g>
			<g>
				<g>
					<path class="st4" d="M609.64,1173.29c-0.17,0.64-14.36-2.66-31.67-7.39c-17.32-4.73-31.22-9.08-31.04-9.72
						c0.17-0.64,14.35,2.67,31.67,7.39C595.91,1168.3,609.81,1172.65,609.64,1173.29z"/>
				</g>
			</g>
			<g>
				<g>
					<path class="st4" d="M826.29,1030.94c0,0.11-1.9,0.31-5.32-0.03c-3.4-0.35-8.38-1.14-14.14-3.37
						c-5.77-2.16-12.33-5.77-18.45-11.24c-6.13-5.44-11.6-12.92-15.09-21.73c-3.55-8.8-4.71-17.97-4.16-26.14
						c0.54-8.15,2.7-15.52,6.35-20.68c3.61-5.23,8.4-7.76,11.74-8.64c1.69-0.45,3.05-0.55,3.96-0.53c0.91,0.02,1.38,0.12,1.38,0.2
						c0.01,0.23-1.92,0.12-5.06,1.23c-3.08,1.1-7.41,3.7-10.6,8.7c-6.31,9.92-8.07,28.04-1.37,44.98
						c3.36,8.47,8.53,15.66,14.35,20.98c5.81,5.35,12.06,9,17.59,11.3C818.6,1030.58,826.37,1030.43,826.29,1030.94z"/>
				</g>
			</g>
			<g>
				<g>
					<path class="st4" d="M934.38,1034.94c-0.67,0-1.17-19.14-1.12-42.73c0.05-23.61,0.63-42.74,1.29-42.74
						c0.67,0,1.17,19.13,1.12,42.74C935.63,1015.81,935.05,1034.95,934.38,1034.94z"/>
				</g>
			</g>
		</g>
		<g>
			<g>
				<path class="st13" d="M764.25,938.92c0.51-10.35,1.59-22.04,1.59-22.04s25.59-2.82,27.14-29.26c1.55-26.44,0-87.4,0-87.4
					l-46.61-23.73l-51.27,40.46l7.77,132.17l47.18,3C757.49,952.59,763.87,946.67,764.25,938.92z"/>
			</g>
			<g>
				<g>
					<path class="st14" d="M768.86,866.7c0.07,0.02,0.08,0.49-0.41,1.14c-0.47,0.62-1.51,1.33-2.94,1.3
						c-2.97-0.14-5.83-3.43-6.88-7.43c-0.53-2.04-0.53-4.1-0.13-5.88c0.32-1.75,1.32-3.5,2.78-3.98c0.7-0.26,1.42-0.23,1.97,0.05
						c0.54,0.27,0.87,0.69,1.05,1.06c0.35,0.79,0.08,1.27,0.01,1.23c-0.11-0.01-0.08-0.44-0.47-0.93c-0.36-0.51-1.24-0.96-2.2-0.46
						c-0.98,0.44-1.66,1.7-1.91,3.31c-0.29,1.6-0.26,3.43,0.22,5.24c0.93,3.59,3.42,6.53,5.63,6.8c1.1,0.14,2-0.28,2.5-0.68
						C768.59,867.03,768.77,866.66,768.86,866.7z"/>
				</g>
			</g>
			<g>
				<path class="st4" d="M808.88,785.95c-3.56-12.17-16.5-18.21-28.29-21.55c-17.93-5.08-37.36-7.33-54.88-0.88
					c-17.52,6.45-38.59,17.8-38.59,37.16c-10.34-0.85-16.25,8.21-20.35,19.44c-2.43,6.63-4.02,14.01-4.4,21.33l-0.17-0.06
					c-1.33,25.34-8.39,60.24-24.81,78.98c-9.07,10.35-22.13,17.49-27.42,30.38c-4.59,11.2-2.22,24.43-6.56,35.74
					c-3.83,9.98-12.33,17.06-18.41,25.75c-13.26,18.91-14.16,45.63-4.42,66.73c9.74,21.11,29.05,36.55,50.48,43.62
					c21.43,7.08,44.78,6.3,66.59,0.62c16.1-4.19,31.77-11.13,44.6-22.1c12.83-10.97,22.68-26.21,25.61-43.23
					c3.27-18.94-2.04-38.18-5.94-56.99c-12.34-59.52-8.81-62.62,6.76-117.83c0.35-0.97,0.57-1.99,0.84-2.99
					c0.21-0.73,0.4-1.43,0.61-2.19l-0.03-0.01c0.43-2.16,0.72-4.36,0.73-6.6c-4.51,1.78-9.95,0.6-13.41-2.9
					c-3.46-3.5-4.74-9.13-3.17-13.88c1.81-5.46,6.82-9.11,11.96-11.27c5.14-2.16,10.68-3.24,15.72-5.64
					c10.71-5.09,18.13-15.67,23.18-26.75C808.65,803.06,811.29,794.17,808.88,785.95z"/>
			</g>
			<g>
				<g>
					<path class="st5" d="M770.69,867.83c0.16-0.07,1.06,1.66,2.44,4.58c1.38,2.93,3.22,7.06,5.28,11.81l0.39,0.9l-0.98,0.08
						c-1.55,0.13-3.11,0.27-4.72,0.41c-3.24,0.21-5.93,0.6-9.07,0.56c-0.5-0.09-1.05-0.54-1.2-1.05c-0.17-0.5-0.12-0.92-0.07-1.29
						c0.14-0.73,0.29-1.27,0.44-1.88l0.82-3.28c1.03-4.01,1.76-6.46,1.95-6.42c0.19,0.05-0.18,2.58-0.95,6.64l-0.65,3.32
						c-0.24,1.12-0.64,2.8-0.04,2.67c2.31-0.1,5.6-0.48,8.65-0.71c1.61-0.13,3.17-0.25,4.72-0.38l-0.59,0.98
						c-1.99-4.77-3.67-8.98-4.82-12C771.14,869.75,770.53,867.9,770.69,867.83z"/>
				</g>
			</g>
		</g>
		<g>
			<g>
				<path class="st4" d="M611.95,1258.3l205.62-6.27L907,1601.41l-16.47,400.76H781.7l13.49-392.23l-79.54-243.22l12.25,650.98
					l-109.88,1.62l-11.58-611.9c-0.48-17.01-6.08-55.38-4-72.25L611.95,1258.3z"/>
			</g>
			<g>
				<g>
					<path class="st6" d="M743.03,1371.66c-0.04,0.32-3.9,0.13-10.09-0.6c-6.19-0.73-14.7-2.03-24.02-3.9
						c-9.32-1.88-17.68-3.97-23.66-5.69c-5.99-1.72-9.62-3.03-9.53-3.35c0.18-0.67,15.11,2.95,33.67,6.67
						C727.95,1368.54,743.12,1370.98,743.03,1371.66z"/>
				</g>
			</g>
			<g>
				<g>
					<path class="st6" d="M889.54,1980.19c0,0.67-24.64,1.21-55.03,1.21c-30.4,0-55.03-0.54-55.03-1.21c0-0.67,24.63-1.2,55.03-1.2
						C864.9,1978.98,889.54,1979.52,889.54,1980.19z"/>
				</g>
			</g>
			<g>
				<g>
					<path class="st6" d="M726.91,2000.79c0,0.67-23.9,1.21-53.38,1.21c-29.49,0-53.39-0.54-53.39-1.21c0-0.67,23.9-1.2,53.39-1.2
						C703.01,1999.59,726.91,2000.13,726.91,2000.79z"/>
				</g>
			</g>
			<g>
				<g>
					<path class="st6" d="M712.76,1999.13c-0.67,0.01-3.55-142.24-6.45-317.68c-2.9-175.5-4.71-317.74-4.04-317.75
						c0.67-0.01,3.56,142.21,6.46,317.71C711.62,1856.85,713.43,1999.11,712.76,1999.13z"/>
				</g>
			</g>
			<g>
				<g>
					<path class="st6" d="M874.92,1980.19c-0.04,0-0.06-0.64-0.05-1.89c0.03-1.37,0.06-3.21,0.1-5.56
						c0.14-5.01,0.35-12.18,0.62-21.35c0.65-18.67,1.58-45.46,2.73-78.51c2.54-66.4,6.04-157.91,9.9-259
						c0.04-0.93,0.07-1.87,0.11-2.73l0.04,0.34c-24.37-97.58-46.4-185.79-62.37-249.74c-7.84-31.85-14.19-57.66-18.61-75.65
						c-2.12-8.84-3.78-15.76-4.94-20.59c-0.52-2.27-0.92-4.04-1.23-5.37c-0.26-1.21-0.38-1.84-0.34-1.85
						c0.04-0.01,0.23,0.6,0.58,1.79c0.36,1.3,0.84,3.07,1.46,5.31c1.26,4.81,3.07,11.68,5.38,20.48
						c4.6,17.93,11.2,43.68,19.35,75.46c16.15,63.9,38.42,152.05,63.06,249.56l0.04,0.17l-0.01,0.18c-0.03,0.86-0.07,1.79-0.11,2.73
						c-4.14,101.07-7.89,192.58-10.61,258.97c-1.47,33.04-2.66,59.82-3.49,78.48c-0.46,9.16-0.82,16.33-1.07,21.33
						c-0.14,2.35-0.26,4.18-0.34,5.55C875.03,1979.55,874.97,1980.19,874.92,1980.19z"/>
				</g>
			</g>
			<g>
				<g>
					<path class="st6" d="M839.45,1602.99c0.11,0.66-10.65,3.05-24.04,5.35c-10,1.72-18.63,2.9-22.41,3.11l-0.01-0.94
						c1.25,0.34,1.93,0.61,1.9,0.78c-0.03,0.17-0.75,0.22-2.04,0.16l-2.81-0.12l2.81-0.82c3.63-1.06,12.16-2.83,22.16-4.55
						C828.39,1603.67,839.34,1602.33,839.45,1602.99z"/>
				</g>
			</g>
			<g>
				<g>
					<path class="st6" d="M837.37,1616.32c-0.09,0.67-9.75-0.07-21.65-0.99c-11.9-0.94-21.56-1.7-21.54-2.38
						c0.01-0.66,9.76-0.97,21.73-0.03C827.88,1613.85,837.46,1615.68,837.37,1616.32z"/>
				</g>
			</g>
			<g>
				<path class="st12" d="M611.03,1265.68c4.97,7,12.06,9.45,20.3,10.8c8.24,1.35,16.64,0.45,24.94-0.47
					c53.08-5.89,109.32-11.32,161.3-23.98c-67.29,3.77-138.34,2.5-205.62,6.27c0,0-0.57,4.63-0.71,5.74"/>
			</g>
			<g class="st12">
				<polygon points="680.39,1360.52 718.3,1507.68 715.64,1366.72 				"/>
			</g>
		</g>
	</g>
</g>
</svg>
